<svg xmlns="http://www.w3.org/2000/svg" width="32" height="26" viewBox="0 0 32 26" fill="none">
  <path fill-rule="evenodd" clip-rule="evenodd" d="M5.61867 3.17041C3.447 3.17041 1.68652 4.57337 1.68652 6.30401V18.8384C1.68652 20.569 3.447 21.972 5.61867 21.972H26.5901C28.7618 21.972 30.5222 20.569 30.5222 18.8384V6.304C30.5222 4.57337 28.7618 3.17041 26.5901 3.17041H5.61867ZM9.07923 7.59066C8.52312 7.22135 7.69663 7.28123 7.23321 7.7244C6.76979 8.16757 6.84492 8.82622 7.40103 9.19553L13.5871 13.3037C15.0453 14.2721 17.1635 14.2721 18.6217 13.3037L24.8078 9.19553C25.3639 8.82622 25.439 8.16757 24.9756 7.7244C24.5122 7.28123 23.6857 7.22135 23.1296 7.59066L16.9435 11.6988C16.4574 12.0216 15.7514 12.0216 15.2653 11.6988L9.07923 7.59066Z" fill="#868AA5"/>
</svg>