<svg xmlns="http://www.w3.org/2000/svg" width="24" height="25" viewBox="0 0 24 25" fill="none">
  <g clip-path="url(#clip0_435_3088)">
    <path fill-rule="evenodd" clip-rule="evenodd" d="M7.41907 0.193604C5.88889 0.193604 4.64844 1.52975 4.64844 3.17798V21.0842C4.64844 22.7325 5.88889 24.0686 7.41907 24.0686H16.6545C18.1847 24.0686 19.4251 22.7325 19.4251 21.0842V3.17798C19.4251 1.52975 18.1847 0.193604 16.6545 0.193604H7.41907ZM12.0368 20.0894C12.5469 20.0894 12.9603 19.6441 12.9603 19.0947C12.9603 18.5452 12.5469 18.0999 12.0368 18.0999C11.5267 18.0999 11.1132 18.5452 11.1132 19.0947C11.1132 19.6441 11.5267 20.0894 12.0368 20.0894Z" fill="#868AA5"/>
  </g>
  <defs>
    <clipPath id="clip0_435_3088">
      <rect width="22.1651" height="23.875" fill="white" transform="translate(0.954102 0.193604)"/>
    </clipPath>
  </defs>
</svg>