<svg xmlns="http://www.w3.org/2000/svg" width="37" height="33" viewBox="0 0 37 33" fill="none">
  <path fill-rule="evenodd" clip-rule="evenodd" d="M26.2213 10.4623C26.2213 14.4678 22.7699 17.7149 18.5124 17.7149C14.2548 17.7149 10.8034 14.4678 10.8034 10.4623C10.8034 6.4569 14.2548 3.20984 18.5124 3.20984C22.7699 3.20984 26.2213 6.4569 26.2213 10.4623ZM25.1291 21.8011C27.5802 22.2551 29.1804 22.9959 29.8662 24.1907C30.3813 25.1232 30.3813 26.2333 29.8662 27.1658C29.1804 28.3606 27.6437 29.1492 25.1037 29.5555C23.9719 29.7642 22.8262 29.9 21.6747 29.9617C20.6079 30.0692 19.5411 30.0692 18.4616 30.0692H16.5184C16.112 30.0214 15.7183 29.9975 15.3373 29.9975C14.1858 29.9433 13.0399 29.8116 11.9083 29.6032C9.45722 29.1731 7.85701 28.4084 7.17121 27.2136C6.90647 26.7508 6.76689 26.2338 6.76481 25.7082C6.75929 25.1794 6.89464 24.6577 7.15851 24.1907C7.83161 22.9959 9.43182 22.2193 11.9083 21.8011C13.0448 21.597 14.1947 21.4653 15.35 21.4068C17.4635 21.251 19.5866 21.251 21.7001 21.4068C22.8509 21.4682 23.9964 21.5999 25.1291 21.8011Z" fill="#868AA5"/>
</svg>